<svg version="1" xmlns="http://www.w3.org/2000/svg" width="682.667" height="682.667" viewBox="0 0 512.000000 512.000000"><path d="M232.6 1.1c-28.6 2.3-65.1 12.6-90.9 25.6C66.6 64.3 15.4 134.9 2.3 219c-2.8 17.8-2.5 59.9.5 77.4 9.7 56.2 32.9 101.4 72.1 140.7 22 21.9 41.9 36.1 69.7 49.6 26.7 12.9 58.1 21.7 87.8 24.4 15.7 1.4 45.7.7 60.6-1.6 79.4-11.9 148.1-59.5 186.9-129.3 40.9-73.7 42.5-164.9 4.2-240-12.5-24.3-25.2-42.1-44.5-62-21.9-22.5-42.5-37.6-69.7-51.1-43-21.4-88.6-30-137.3-26zm8.9 67.9c-1.7 1.9-1.7 2.1 0 4 1 1.1 1.5 2.3 1.1 2.7-.9.9-6.7-5.8-6.2-7.2.2-.6 1.1-.9 2-.7.9.2 1.9-.4 2.2-1.3.5-1.1 1-1.3 1.7-.6.7.7.5 1.7-.8 3.1zm1.9 16.6c.3.8.2 1.2-.4.9-.6-.3-1-1-1-1.6 0-1.4.7-1.1 1.4.7zm5.6 6.7c1.3.9 3.4 1.7 4.6 1.7 1.5 0 2.8 1.4 4.7 4.8 1.4 2.7 4.5 6.9 6.7 9.5l4.1 4.6-4.8-2.1c-8.6-3.8-18.5-3.5-30.3.9-.8.3.6-1.6 3.1-4.3 2.6-2.7 5.4-6.4 6.3-8.1 1.5-3.1 1.5-3.5 0-5.8-1.4-2.1-1.4-2.8-.3-4.1 1.1-1.3 1.5-1.4 2.3-.2.6.8 2.2 2.2 3.6 3.1zm1.6 18.6c.8-.6 1.4-.7 1.4-.2 0 .5 1 .9 2.3.8 1.2-.1 2.7 0 3.2.4.6.3 1.2.6 1.5.6 3.4.5 7 1.9 7 2.6 0 .6.5.7 1 .4.6-.3 1-.1 1 .4 0 .6.7 1.1 1.5 1.1s1.5.5 1.5 1.1c0 .5.4.8.8.5.5-.3 1.4.4 2.2 1.4.8 1 1.7 1.7 2.1 1.5.4-.3.9.5 1.2 1.6.4 1.6.2 1.9-1.1 1.4-16.5-6.7-33.8-7.2-47.1-1.4-2.4 1.1-4.6 1.8-4.8 1.5-.8-.8 2.1-5.6 3.4-5.6.7 0 1.3-.5 1.3-1.1 0-.5.5-.7 1-.4.6.3 1 .1 1-.4 0-.6.7-1.1 1.5-1.1s1.5-.5 1.5-1.1c0-.5.5-.7 1-.4.6.3 1 .2 1-.4 0-.6.7-.8 1.5-.5.8.4 1.5.1 1.5-.5s.7-.8 1.5-.5c.8.4 1.5.2 1.5-.4 0-.5 1.4-.8 3-.6 1.9.2 3-.1 3.1-.9 0-.9.2-.9.6.1.4 1 .8 1 1.9.1zm18.1 13.6c9.3 3.1 10.8 4 11.8 7.3l.7 2.3-4.9-2.5c-15-7.6-34.6-7.6-49.5 0-2.7 1.4-4.8 2.1-4.8 1.7.1-3.5 1.7-5.3 6.2-7.3 13.1-5.6 26.6-6.1 40.5-1.5zm1.5 7.7c3.7 1.4 7.9 3.3 9.3 4.2l2.5 1.6v51.9l-5.7-2.4c-16.2-6.5-34.9-5.8-52.5 1.9-1.7.8-1.8-.8-1.8-25.6v-26.4l3.2-1.8c1.7-1.1 6.1-3 9.7-4.3 5.8-2.1 7.9-2.3 17.6-2 8.6.3 12.5 1 17.7 2.9zm-5.9 54.3c7.7 1.6 17.7 5.8 17.7 7.5 0 .7-1 .6-2.7-.4-1.6-.7-6.2-2.3-10.3-3.6-4.1-1.2-9-2.6-10.8-3.2-1.8-.5-4.5-.7-6-.4-4.2.9-6.3 1.3-11.9 2.1-2.9.4-5.5 1.1-5.9 1.6-.3.5-1.3.9-2.2.9-.9.1-3.5.9-5.7 2-2.2 1-4.1 1.7-4.3 1.5-1.6-1.6 7.8-5.7 18.3-8 8-1.8 15.5-1.8 23.8 0zm-12.2 3.4c.8-1.2 1.1-1.1 2 .1.8 1.2 1.2 1.2 1.6.2.4-1 .8-1 1.9-.1 1.1.9 1.4.8 1.4-.2s.2-1.1.8-.2c.4.6 2.2 1.3 4 1.5 1.8.2 3.6.8 4 1.3 1 1.4 3.2 1.7 3.2.5 0-.6.5-1 1-1 .6 0 .9.3.9.7-.3 1.9.2 2.7.9 1.5.6-.9 1.4-.7 3 .8 1.2 1.2 2.6 1.9 3.1 1.6.5-.3 1.1.4 1.4 1.5.6 2.4 1.3 2.5-10.3-1.8-6.7-2.4-8.8-2.7-19-2.7-11 .1-17.8 1.5-28.2 5.9-1.4.5-1.8.2-1.8-1.4 0-1.4.5-1.9 1.5-1.5.8.4 1.5.1 1.5-.6s.7-1 1.5-.6c.8.3 1.5.1 1.5-.5s.5-.7 1-.4c.6.3 1 .2 1-.4 0-.5 1.4-.9 3.2-.9 1.8.1 3.4-.4 3.6-1 .2-.6 1-.8 1.8-.5.8.3 1.4 0 1.4-.7 0-1 .3-1 1.5 0 1 .8 1.5.9 1.5.1 0-.6 1.3-.9 3-.7 1.7.2 3.3-.1 3.7-.7.4-.7.8-.7 1.1.2.4 1.1.6 1.1 1.3 0zm14.9 7.8c7.3 2 15 6 15 7.8 0 1.2-.5 1.2-4.1 0-14-5-35.1-5.7-47.9-1.6-7.8 2.5-8 2.5-8 .6 0-1.5 6.5-4.8 13.2-6.6 11-2.9 21.6-3 31.8-.2zm-12.8 12.8c1 3.8 2.1 9.3 2.4 12.1l.6 5.1-5.3.7c-3 .4-5.8.7-6.4.7-3.9-.1-10.3-2.4-16.9-6l-7.7-4.3.6-4.2c.9-5.1 1.8-6.2 6.2-7.7 5.4-1.7 17.4-3.8 21.3-3.6 3.4.2 3.4.3 5.2 7.2zm20-3.5c5.8 1.8 7.2 2.7 10.3 6.7 1.9 2.5 3.5 5.1 3.5 5.7 0 .6-4.2 3.4-9.3 6.3l-9.3 5.2-4.7-1.6c-4.2-1.4-4.7-1.9-5.3-5.2-.3-2-1.4-7.3-2.5-11.9-1-4.6-1.9-8.5-1.9-8.6 0-.7 13.4 1.7 19.2 3.4zm-54.7 5.7c-.4 2.1-.8 3.9-1 4.1-.2.2-2.2-.6-4.5-1.8-2.3-1.2-4-2.3-3.8-2.6.6-.5 8-3.2 9.2-3.3.4-.1.5 1.6.1 3.6zm74.8.5c3.4 1.2 3.4 2.2.2 3.6-3.7 1.7-3.8 1.7-7.3-3.3L284 209l3.8 1.6c2 .9 4.9 2 6.5 2.6zm-114.1 21.5c3.3 2 3.3 1.1.3 17.3-.8 4.7-1.8 17.3-2.2 28.2l-.6 19.6-13.1 4.6c-7.2 2.5-13.3 4.3-13.6 4-1.1-1.2-.1-29.5 1.4-38.4 2.3-13.4 7.6-24 15.8-31.4 3.4-3.1 6.8-5.6 7.6-5.6.8 0 2.7.8 4.4 1.7zm160.9 12c12.8 13.2 13.5 14.3 15.3 25.3 1.8 11.3 3.6 28.3 3.6 35v4.8l-10.7-4.3-10.8-4.3-.7-5.4c-.3-2.9-1.1-10.9-1.7-17.8-1.4-14.8-4.2-29.3-7.2-36.8-1.8-4.4-2-5.5-.9-6.2 2-1.3 3.6-.1 13.1 9.7zm-150.5 1.9c-.6 6.8-.5 7.4 1.5 8.5 3.2 1.7 9.8 1.3 12-.7 1-.9 1.9-2.8 1.9-4.1 0-2.8.1-2.8 5.2-.2l4.1 2.1-.7 5.1c-.3 2.9-.6 11.4-.6 18.9 0 13.6 0 13.8-2.2 13.8-2 0-23.3 4.8-29.5 6.6-2.3.6-2.3.5-2.3-9.2 0-16.1 2.2-37.1 5-47.5l1.1-3.9 2.6 1.7c2.5 1.6 2.5 1.9 1.9 8.9zm136.6-3.2c1 2.7 2.5 7.9 3.3 11.5 1.8 8.8 4.5 32.1 4.5 39.5 0 5.1-.2 5.7-1.7 5.1-2.2-.8-21.2-6.2-26.9-7.5l-4.2-1-.6-12.8c-.3-7-.8-16.1-1.1-20.2-.4-7.4-.4-7.5 2.5-9.2 3.2-1.8 4-1.5 4 1.8 0 3.9 3.3 6.9 7.9 6.9 6.3 0 7.2-1.6 5.9-10.3-1-6.2-1-7.5.3-8.3 2.5-1.6 4.1-.5 6.1 4.5zM153 257.3c-3 8.5-4.1 16.9-4.7 36l-.6 17.9-3.1 1.3c-1.7.8-5.8 2.5-9 4-3.2 1.4-6 2.4-6.1 2.3-.1-.2.8-8 2.1-17.3 1.3-9.4 2.4-17.6 2.4-18.3 0-.7 1.5-1.9 3.4-2.7 3.6-1.5 4-2.3 5.2-9.5.5-3.2 2.2-6.5 6.1-11.7 3-4 5.6-7.3 5.8-7.3.2 0-.5 2.4-1.5 5.3zm145.9 21.4c.1 10-.2 13.3-1.1 13.3-.7 0-6.2-.7-12.3-1.5-6-.8-13.2-1.5-16-1.5-2.7 0-5.5-.4-6.2-.8-2.2-1.4-.3-4.8 3.5-6.2 6.9-2.5 13.8-10.5 16.6-19.2.3-1 3.6-3.3 7.3-5.2l6.8-3.4.6 5.7c.4 3.1.7 11.6.8 18.8zm-75.8-20.2c2.7 1.4 5.2 3.4 5.5 4.3 2.7 8.3 8.1 15 14.8 18.4 2.2 1.1 6.9 2.3 10.3 2.6 5 .4 6.3.8 6.3 2.1 0 1.5-2.4 1.9-18.7 2.9-10.4.7-20.3 1.5-22 1.9l-3.3.5v-6.3c0-8.4 1.2-28.9 1.7-28.9.2 0 2.6 1.1 5.4 2.5zM366 281c.5 1.9 1 4.3 1 5.3 0 .9 1 2.2 2.3 2.8 2.5 1.1 7.2 12.5 10.2 24.5 2.4 10 2.6 9.9-7.4 4.6l-8.9-4.7-.7-8c-.9-10.8-3.4-33-4.1-36.3-.8-3.9 6.3 7.2 7.6 11.8zm-129.3 13c.3 1.6 1 3 1.5 3s.7-1.3.3-3c-.9-4.3 2-4 3.1.2l.8 3.3.3-3.3c.5-4.2 3.3-4.4 3.3-.2 0 1.6.5 3 1 3 .6 0 1-1.4 1-3 0-2 .5-3 1.5-3s1.5 1 1.5 3c0 1.6.5 3 1 3 .6 0 1-1.4 1-3 0-2 .5-3 1.5-3s1.5 1 1.5 3c0 1.6.5 3 1 3 .6 0 1-1.4 1-3 0-2 .5-3 1.5-3s1.5 1 1.5 3.1c0 1.7.4 2.8 1 2.4.6-.3 1-1.7 1-3.1 0-3.7 2.8-3 3.3.8l.3 3.3.8-3.3c.5-1.7 1.5-3.2 2.2-3.2.9 0 1.4 1.2 1.5 3.2l.1 3.3 1-2.8c1.4-3.8 4.2-3.6 3.6.3-.3 1.6-.1 3 .4 3s1.1-1.4 1.5-3c.3-1.7 1.2-3 2.1-3 1.1 0 1.3.7.9 3-.8 3.6.8 4.1 1.7.5 1-3.8 3.7-3.3 3 .5-.4 1.7-.2 3 .4 3 .5 0 1.2-1.4 1.6-3.1.7-3.8 3.2-3.4 2.8.4-.4 3.2 1.5 3.7 2 .5.5-3.5 2.8-3.4 2.8.2 0 1.8.4 2.9 1 2.5.6-.3 1-1.5 1-2.6 0-3.5 3-2.2 3.1 1.3l.1 3.3 1-2.8c1.4-3.8 3.8-3.5 3.9.5.1 3 .2 3.1.8.8.4-1.4 1.5-2.6 2.5-2.8 1.6-.3 1.8.1 1.4 2.7-.2 1.7-.1 3.1.3 3.1s.9-1 1.1-2.2c.2-1.3 1.1-2.4 2-2.6 1.5-.3 1.7.2 1.2 2.7-.8 3.8.3 4.1 1.6.5 1.3-3.4 3.6-2.6 3.3 1.2-.3 2.8-.2 2.8.9.6 1.7-3.3 3.8-2.8 3.9 1l.1 3.3 1-2.8c1.4-3.9 4.2-3.7 3.5.3-.8 3.6 0 3.9 1.3.5 1.3-3.5 3.7-2.3 3.4 1.8l-.3 3.2 1.1-2.8c1.6-3.8 4.2-3.6 3.6.3-.5 3.3.7 4.1 1.5 1 .3-1.1 1.3-2 2.2-2 1.4 0 1.6.6 1.2 3.2l-.6 3.3 1.4-2.7c1.9-3.4 4.3-2.7 3.8 1-.3 2.7-.3 2.7.8.4 1.6-3 3.4-2.2 3.2 1.4-.2 2.9-.1 2.9 1.3.7 2.1-3 4.6-2 3.4 1.3-.6 1.4-.6 2.4 0 2.4.5 0 1.2-.9 1.5-2.1 1-2.9 3-1.7 2.8 1.7-.2 2.9-.1 2.9 1.3.7 2.1-3 4.6-2 3.4 1.3-.5 1.3-.6 2.4-.1 2.4s1.1-.7 1.5-1.5c.3-.8 1.3-1.5 2.2-1.5 1.3 0 1.5.6 1 2.7-.6 2.6-.5 2.7.8.9 2-2.4 3.9-1.1 3.2 2.3-.6 2.6-.6 2.6 1 .4 2.2-3.1 4.6-2 3.3 1.5-1 2.5-1 2.6.9.8 2.2-1.9 3.8-.7 2.8 1.9-.3.8-.1 1.5.4 1.5.6 0 1 2 1 4.4v4.3l-13.3-6.6c-45.6-22.7-99.4-31.5-149.9-24.5-31.4 4.3-63.5 13.9-89.8 26.8-5.2 2.5-9.6 4.6-9.8 4.6-.2 0-.1-2.1.2-4.8.3-2.6.7-5.7.7-7 .1-1.2.7-2.2 1.4-2.2s2 1 2.9 2.2l1.7 2.3-.7-2.5c-1-3.9-1-4.2.3-4.7.6-.2 1.9.8 2.7 2.4l1.6 2.8-.6-3.8c-.5-2.9-.3-3.7.9-3.7.9 0 1.9.9 2.2 2 .3 1.1 1 2 1.5 2s.4-1.2-.2-2.6c-1-2.1-.9-2.7.3-3.4 1.1-.7 1.6-.2 2.3 2 .5 1.7 1.5 3 2.2 3 1.4 0 .9-2.4-.9-4.7-.6-.9-.4-1.5.7-1.9 2-.8 2.7-.2 3 2.3.2 1 1.1 2 2 2.1 1.5.3 1.6.1.6-1.7-.6-1.2-.7-2.1-.3-2.1.4 0 .1-.5-.7-1-1.3-.8-1.3-1.1-.1-2.2.9-.9 1.5-1 1.8-.2.2.6 1.1 2 1.9 3 1.5 1.9 1.5 1.2-.1-2.9-1.1-2.7 2.9-2.2 4.3.5 1.1 2.1 1.1 2 .6-1-.7-4.1 1.8-4.4 4.1-.5l1.5 2.8-.6-3.8c-.5-3-.3-3.7 1-3.7.9 0 1.6.4 1.6.8 0 .5.7 1.7 1.5 2.8 1.3 1.7 1.4 1.7.6-1.3-1.2-4.2 1.3-5.4 3.4-1.5l1.4 2.7-.6-3.3c-.4-2.5-.2-3.2 1.1-3.2.9 0 2.1 1.1 2.6 2.5 1.4 3.6 2 3.1 1.3-1-.7-4.4 1.7-4.9 3.5-.8l1.1 2.8-.3-3.3c-.3-4 1.7-4.3 3.9-.5l1.5 2.8-.2-3.5c-.2-2.6.1-3.5 1.2-3.5.8 0 1.6 1 1.8 2.2.2 1.3.7 2.3 1.1 2.3.4 0 .6-1.4.3-3-.6-3.9 2.2-4.1 3.6-.3l1 2.8.1-3.3c.1-4 2.3-4.3 3.9-.5l1.1 2.8-.3-3.2c-.3-4.2 1.9-5.1 3.3-1.2 1.3 3.8 2.5 3.8 1.8 0-.4-2.1-.2-3.1.9-3.5 1-.4 1.6.3 2.1 2.4.7 4 2.4 3.9 2.1-.1-.4-4.4 1.9-4.8 3.1-.7l.9 3.3.1-3.2c.1-4.2 2.3-4.8 3.8-.9l1.1 3.1.1-3.3c.1-4 2.3-4.3 3.8-.5l1.1 2.8.1-3.3c.1-2 .6-3.2 1.5-3.2.7 0 1.7 1.5 2.2 3.2l.8 3.3.3-3.8c.5-4.4 2.6-4.6 3.1-.4.2 1.5.8 2.7 1.4 2.7.6 0 .8-1.3.6-3-.4-2.4-.1-3 1.1-2.8.9.2 1.7 1.5 1.9 3.1.4 3.5 2.4 3.5 2.2-.1-.3-3.7-.2-4.2 1-4.2.6 0 1.3 1.3 1.7 3zm-108.3 13.3c-1.6 12.4-1.9 13.6-4.1 14.6-1.9.9-2.3.8-2.3-.7.1-4.2 6.9-28.6 7.7-27.8.3.3-.3 6.5-1.3 13.9zm166.9 4.6c32.6 5.8 51.5 12.7 89.5 32.4 16.3 8.5 22.1 17.2 22.9 34.7l.5 9.5-6 6.6-6.1 6.6-18.5-5.3c-21.8-6.3-46.4-11.4-70.1-14.5-22.8-3.1-70.9-3.4-93.5-.6-27.8 3.5-56.7 9.6-83.3 17.9l-13.2 4-6.4-6.9c-3.5-3.7-8.6-9.5-11.3-12.7-5.6-6.7-5.7-7.8-1.4-17.2 1.9-4.1 3.4-5.8 7.2-8 6.5-3.6 9.2-6.2 11.4-10.4 1.6-3.1 3.7-4.5 15.7-10.3 28.3-13.7 59.5-23.1 90.3-27.2 16.2-2.1 56.9-1.4 72.3 1.4zM283.5 382c25.6 1.9 49 5.5 72.5 11.1 11.7 2.8 36 9.7 36.9 10.5.6.5-5.3 5.3-6.6 5.4-.7 0-7-1.6-14-3.5-39.6-10.8-74.9-15.6-114.3-15.6-41.7 0-84 6.6-126.2 19.5-4.7 1.5-4.8 1.4-7.8-1.1-1.7-1.4-2.8-2.9-2.3-3.4 1.2-1.2 23.1-7.6 39.3-11.5 23.8-5.8 51.2-9.9 78-11.7 10.9-.8 31.6-.6 44.5.3zm23.2 12.9c24.5 3.2 52.2 8.9 69.6 14.3l7.2 2.3-14 .3-14 .3-3-3.7c-3.6-4.3-7.4-4.8-10.8-1.6l-2.3 2.1-10.9-1.9c-26.8-4.6-38-5.5-69.5-5.5-32.6 0-46.2 1.2-72.5 6l-13 2.4-1.7-2.1c-2.6-3.5-8.4-3-11.7 1l-2.6 3.2-12-.1c-11.6 0-11.9-.1-8.1-1.5 6.6-2.4 35.2-9.2 49.6-11.8 11.7-2.1 30.5-4.6 46-6 12.5-1.1 58.1.3 73.7 2.3zm-19.3 14.2c27.3 2.1 21.6 2.7-28.4 2.7-49.3 0-55.9-.6-30.5-2.6 16.1-1.3 42.8-1.4 58.9-.1z"/><path d="M248.1 136.9c-.7 1.2-1.1 9.4-1.1 21V177h9v-18.3c0-12.6-.4-19-1.3-20.7-1.6-3.2-5.2-3.8-6.6-1.1zM233 141c-1.9 1.9-2 3.4-2 21.6 0 18.1.1 19.5 1.8 19 .9-.3 2.9-.8 4.5-1.2l2.7-.6v-17.4c0-17.3-.7-21.7-3.7-22.8-.7-.3-2.2.3-3.3 1.4zM264 141c-1.8 1.8-2 3.4-2 20.4v18.4l2.8.6c1.5.4 3.5.9 4.5 1.2 1.6.5 1.7-.8 1.7-18 0-18.5-.7-22.9-3.7-24-.7-.3-2.2.3-3.3 1.4zM165 248.8c-1.5 1.2-2.6 3.9-3.6 9.2-1.4 7.4-1.4 7.5.8 9.3 2.6 2.1 8.2 1.8 10.6-.7.8-.8 2.1-4.7 2.9-8.8 1.3-7.1 1.3-7.3-.8-9.1-2.7-2.2-7.1-2.2-9.9.1zM339.2 257.3c-1.4 1.6 1 14.6 2.9 15.8 2.1 1.3 8.5 1.1 9.7-.4 1.3-1.6-.5-12.6-2.6-15-1.8-2-8.4-2.3-10-.4zM246.4 328.4c-1.7.8-4 2.6-5.2 4.1-2.1 2.6-2.2 3.8-2.2 21.6V373h26.1l-.3-18.9c-.3-18.6-.3-19-2.8-21.7-2.7-2.8-7.8-5.4-10.7-5.4-1 .1-3.2.7-4.9 1.4zM202.4 335.4c-6.5 2.9-7.1 4.7-7.6 23.8-.3 9.5-.3 17.5-.1 17.7.2.3 5.4-.3 11.7-1.3l11.4-1.8.7-14.8c.5-11.6.4-15.5-.7-17.6-2.8-5.7-9.8-8.5-15.4-6zM291 334.6c-8.5 2.9-9.3 5.2-8.5 23.4l.7 14.8 6.2.6c3.3.4 8.7.9 11.9 1.3l5.8.6-.7-15.9c-.7-16.7-1.6-20.2-5.7-22.8-2.6-1.7-7.6-2.7-9.7-2zM327.9 345.5c-4.4 2.4-4.9 5.1-3.9 19.6.5 7.3 1.1 13.3 1.2 13.4.2.1 3.9.9 8.3 1.9 4.5.9 9.1 1.9 10.4 2.3l2.3.6-.7-15.4c-.5-9.9-1.2-16.4-2.1-18.1-2.7-5.2-10.1-7.2-15.5-4.3zM162.3 347.5c-5 2.1-6 5.3-6.7 22.2-.7 13.4-.6 15.3.8 15.3 3.5 0 19.1-4.2 19.8-5.3.4-.7.8-7.6.8-15.5v-14.3l-4.2-1.9c-5.1-2.3-6.3-2.4-10.5-.5zM363.5 363.1c-2.6 2.1-2.7 2.3-2 9.9 1.3 14.5 1 14 9.8 16.5 4.2 1.3 7.9 2 8.1 1.6.2-.3-.2-6.2-.9-13-1.1-11.6-1.4-12.6-3.9-14.8-3.4-2.9-7.5-2.9-11.1-.2zM123.8 368.3c-1.9 1.8-2.6 3.7-3.1 8.3-1.9 18.4-1.9 19.4-.7 19.4.6 0 4.5-1 8.5-2.1l7.3-2.2.8-9.1c.5-5 .7-10 .6-11-.7-5.7-8.7-7.6-13.4-3.3z"/></svg>