<svg version="1" xmlns="http://www.w3.org/2000/svg" width="533.333" height="533.333" viewBox="0 0 400.000000 400.000000"><path d="M176.5 2c-2.2.5-4.7.7-5.7.4-.9-.3-1.9 0-2.3.6-.3.5-1.8 1-3.3 1-4.4 0-23 4.8-33.7 8.6C78.8 31.7 33.2 76.8 13.6 129.3c-17 45.4-17 96 0 141.4C36 330.6 90.2 378.7 152 393.5c5.8 1.4 11.7 2.5 13.1 2.5 1.4 0 2.9.3 3.3.7 1.2 1.2 10.7 1.8 31.6 1.8 20.9 0 30.4-.6 31.6-1.8.4-.4 1.9-.7 3.3-.7 4.3 0 23-4.8 33.6-8.6 41.1-14.9 78.8-46.1 102.2-84.7C389.9 271.1 399 238 399 200c0-77.5-42.3-144.6-113.5-180.2C272.1 13.1 243.1 4 234.9 4c-1.4 0-2.9-.3-3.3-.8-1.1-1-3.6-1.2-28.6-1.6-12.4-.3-24.3-.1-26.5.4zm45.7 33.6c12.7 1.7 23.3 4.2 34 8 8.7 3 29.8 13.2 29.8 14.4 0 .4.8 1 1.8 1.4 4.6 1.5 21.1 14.5 30.5 23.9 22.7 23 37.5 50.9 44.8 84.7 2 9.1 2.3 13.3 2.3 32s-.3 22.9-2.3 32c-7.3 33.8-22.1 61.7-44.8 84.7-9.4 9.4-25.9 22.4-30.5 23.9-1 .4-1.8 1-1.8 1.4 0 1.2-21.1 11.3-29.7 14.4-17.1 6-38.3 9.6-56.6 9.6-13.4 0-33.8-2.9-46.2-6.5-11.5-3.4-29.6-11-35.9-15.2-2.6-1.8-5-3.3-5.2-3.3-.2 0-3.6-2.2-7.6-5-28.4-19.3-51.2-49.8-62.3-83.2-6.6-20.1-7.9-28.8-7.9-52.8 0-18.7.3-22.9 2.3-32 8.1-37.5 25.2-67.3 53-92.3 6.7-6 21.2-16.7 22.7-16.7.3 0 2-1.1 3.8-2.5 5.1-3.9 24.3-12.1 36.4-15.6 22.1-6.5 47.2-8.4 69.4-5.3z"/><path d="M193.3 69.6c-6.5 3.2-6.3.5-6.3 81.2v72.9l2.3 3.4c2.4 3.6 7 5.5 11 4.5 2.5-.6 8.6-4.6 33.1-21.6 1.1-.8 16.1-11.1 33.1-22.8 40-27.7 41.3-28.9 38.1-35.7-2-4.1-6.8-7.5-10.8-7.5-1.8 0-7.4 3.1-16.3 9.2-7.5 5.1-14.4 9.7-15.3 10.3-.9.5-1.9 1.3-2.2 1.6-.3.3-3 2.2-6 4.2s-6 4.1-6.7 4.7c-.6.5-6 4.2-12 8.2-5.9 3.9-11 7.5-11.3 7.8-.3.4-3 2.3-6.1 4.3-3.1 1.9-6 4-6.3 4.6-.4.6-1.1 1.1-1.7 1.1-.5 0-.9-23.6-.9-61.1 0-68.1.1-66.7-6.6-69.5-4.2-1.8-5.1-1.7-9.1.2z"/></svg>